<svg width="66" height="105" viewBox="0 0 66 105" fill="none" xmlns="http://www.w3.org/2000/svg">
<path d="M64.2186 78.0863L49.1487 68.1054V61.3075C49.2289 59.9451 48.6497 58.6121 47.5382 57.6007C46.4266 56.5894 44.8734 55.9822 43.219 55.9124H5.87171C4.22897 55.9959 2.69235 56.609 1.59472 57.6188C0.49709 58.6287 -0.0731517 59.9539 0.00753002 61.3075V88.2831C-0.0228759 89.3543 0.334791 90.4087 1.03494 91.3119C1.73509 92.2151 2.746 92.9262 3.93882 93.3545C3.33548 94.5699 3.10034 95.8879 3.25368 97.1948C3.40703 98.5017 3.94426 99.7582 4.81901 100.856C5.69377 101.954 6.87978 102.86 8.27471 103.496C9.66964 104.132 11.2316 104.479 12.8258 104.507C14.42 104.535 15.9986 104.244 17.4253 103.657C18.8521 103.071 20.0841 102.208 21.0152 101.142C21.9463 100.076 22.5484 98.8394 22.7696 97.5391C22.9908 96.2388 22.8244 94.9137 22.2848 93.6782H43.1207C42.5819 94.9005 42.4088 96.2118 42.6159 97.5009C42.8231 98.79 43.4045 100.019 44.3109 101.084C45.2174 102.149 46.422 103.018 47.823 103.618C49.224 104.219 50.78 104.532 52.3592 104.532C53.9385 104.532 55.4945 104.219 56.8954 103.618C58.2964 103.018 59.5011 102.149 60.4075 101.084C61.3139 100.019 61.8953 98.79 62.1025 97.5009C62.3097 96.2118 62.1366 94.9005 61.5978 93.6782H62.253C63.1218 93.6782 63.9551 93.394 64.5695 92.8881C65.1839 92.3822 65.5291 91.6961 65.5291 90.9806V80.1904C65.519 79.7808 65.3958 79.3784 65.1687 79.0138C64.9417 78.6493 64.6168 78.3321 64.2186 78.0863ZM58.9769 81.4852V88.2831H49.1487V75.0111L58.9769 81.4852ZM16.3879 96.3757C16.3879 96.9093 16.1958 97.4308 15.8358 97.8744C15.4758 98.318 14.9642 98.6638 14.3655 98.868C13.7669 99.0721 13.1082 99.1256 12.4727 99.0215C11.8372 98.9174 11.2535 98.6605 10.7953 98.2832C10.3371 97.9059 10.0251 97.4253 9.89871 96.902C9.7723 96.3787 9.83718 95.8363 10.0851 95.3434C10.3331 94.8505 10.753 94.4292 11.2917 94.1328C11.8305 93.8364 12.4639 93.6782 13.1118 93.6782C13.9807 93.6782 14.814 93.9624 15.4284 94.4683C16.0428 94.9742 16.3879 95.6603 16.3879 96.3757ZM32.7683 88.2831H6.55968V61.3075H42.5965V88.2831H32.7683ZM55.7008 96.3757C55.7008 96.9093 55.5087 97.4308 55.1487 97.8744C54.7887 98.318 54.2771 98.6638 53.6784 98.868C53.0798 99.0721 52.4211 99.1256 51.7856 99.0215C51.1501 98.9174 50.5664 98.6605 50.1082 98.2832C49.65 97.9059 49.338 97.4253 49.2116 96.902C49.0852 96.3787 49.1501 95.8363 49.398 95.3434C49.646 94.8505 50.0659 94.4292 50.6047 94.1328C51.1434 93.8364 51.7768 93.6782 52.4247 93.6782C53.2936 93.6782 54.1269 93.9624 54.7413 94.4683C55.3557 94.9742 55.7008 95.6603 55.7008 96.3757Z" fill="#444444"/>
</svg>
