<svg width="58" height="67" viewBox="0 0 58 67" fill="none" xmlns="http://www.w3.org/2000/svg">
<path d="M45.9168 13.8094H12.0835C10.1607 13.8094 8.31661 14.6824 6.95697 16.2363C5.59733 17.7902 4.8335 19.8977 4.8335 22.0952V44.1904C4.8335 46.3879 5.59733 48.4954 6.95697 50.0493C8.31661 51.6032 10.1607 52.4761 12.0835 52.4761H45.9168C47.8396 52.4761 49.6837 51.6032 51.0434 50.0493C52.403 48.4954 53.1668 46.3879 53.1668 44.1904V22.0952C53.1668 19.8977 52.403 17.7902 51.0434 16.2363C49.6837 14.6824 47.8396 13.8094 45.9168 13.8094ZM9.66683 22.0952C9.66683 21.3627 9.92144 20.6602 10.3747 20.1422C10.8279 19.6242 11.4426 19.3333 12.0835 19.3333H45.9168C46.5578 19.3333 47.1725 19.6242 47.6257 20.1422C48.0789 20.6602 48.3335 21.3627 48.3335 22.0952V24.8571H9.66683V22.0952ZM48.3335 44.1904C48.3335 44.9229 48.0789 45.6254 47.6257 46.1434C47.1725 46.6613 46.5578 46.9523 45.9168 46.9523H12.0835C11.4426 46.9523 10.8279 46.6613 10.3747 46.1434C9.92144 45.6254 9.66683 44.9229 9.66683 44.1904V30.3809H48.3335V44.1904Z" fill="#424242"/>
<path d="M16.9172 41.4285H26.5838C27.2248 41.4285 27.8394 41.1375 28.2927 40.6196C28.7459 40.1016 29.0005 39.3991 29.0005 38.6666C29.0005 37.9341 28.7459 37.2316 28.2927 36.7137C27.8394 36.1957 27.2248 35.9047 26.5838 35.9047H16.9172C16.2762 35.9047 15.6615 36.1957 15.2083 36.7137C14.7551 37.2316 14.5005 37.9341 14.5005 38.6666C14.5005 39.3991 14.7551 40.1016 15.2083 40.6196C15.6615 41.1375 16.2762 41.4285 16.9172 41.4285Z" fill="#424242"/>
<path d="M36.2507 41.4285H41.084C41.7249 41.4285 42.3396 41.1375 42.7928 40.6196C43.246 40.1016 43.5007 39.3991 43.5007 38.6666C43.5007 37.9341 43.246 37.2316 42.7928 36.7137C42.3396 36.1957 41.7249 35.9047 41.084 35.9047H36.2507C35.6097 35.9047 34.995 36.1957 34.5418 36.7137C34.0886 37.2316 33.834 37.9341 33.834 38.6666C33.834 39.3991 34.0886 40.1016 34.5418 40.6196C34.995 41.1375 35.6097 41.4285 36.2507 41.4285Z" fill="#424242"/>
</svg>
