<svg width="40" height="40" viewBox="0 0 40 40" fill="none" xmlns="http://www.w3.org/2000/svg">
<path d="M20 0C8.95161 0 0 8.95161 0 20C0 31.0484 8.95161 40 20 40C31.0484 40 40 31.0484 40 20C40 8.95161 31.0484 0 20 0ZM20 36.129C11.0887 36.129 3.87097 28.9113 3.87097 20C3.87097 11.0887 11.0887 3.87097 20 3.87097C28.9113 3.87097 36.129 11.0887 36.129 20C36.129 28.9113 28.9113 36.129 20 36.129ZM28.2097 14.9839L23.1935 20L28.2097 25.0161C28.5887 25.3952 28.5887 26.0081 28.2097 26.3871L26.3871 28.2097C26.0081 28.5887 25.3952 28.5887 25.0161 28.2097L20 23.1935L14.9839 28.2097C14.6048 28.5887 13.9919 28.5887 13.6129 28.2097L11.7903 26.3871C11.4113 26.0081 11.4113 25.3952 11.7903 25.0161L16.8064 20L11.7903 14.9839C11.4113 14.6048 11.4113 13.9919 11.7903 13.6129L13.6129 11.7903C13.9919 11.4113 14.6048 11.4113 14.9839 11.7903L20 16.8064L25.0161 11.7903C25.3952 11.4113 26.0081 11.4113 26.3871 11.7903L28.2097 13.6129C28.5887 13.9919 28.5887 14.6048 28.2097 14.9839Z" fill="#272727"/>
</svg>
