<svg width="80" height="74" viewBox="0 0 80 74" fill="none" xmlns="http://www.w3.org/2000/svg">
<path d="M39.7847 0C17.8122 0 0 16.5654 0 37C0 57.4346 17.8122 74 39.7847 74C61.7572 74 79.5694 57.4346 79.5694 37C79.5694 16.5654 61.7572 0 39.7847 0ZM39.7847 7.16129C57.5165 7.16129 71.8691 20.5068 71.8691 37C71.8691 53.4907 57.5192 66.8387 39.7847 66.8387C22.0529 66.8387 7.70026 53.4932 7.70026 37C7.70026 20.5093 22.0502 7.16129 39.7847 7.16129ZM62.2765 26.5963L58.6612 23.2069C57.9125 22.505 56.6937 22.5003 55.9389 23.1968L33.2629 44.1161L23.6709 35.1231C22.9222 34.4212 21.7034 34.4166 20.9486 35.1129L17.3039 38.4751C16.5491 39.1714 16.5442 40.3049 17.293 41.007L31.8563 54.6606C32.605 55.3626 33.8239 55.3672 34.5787 54.6708L62.2658 29.1283C63.0204 28.4318 63.0252 27.2982 62.2765 26.5963Z" fill="#15771F"/>
</svg>
