<svg width="37" height="43" viewBox="0 0 37 43" fill="none" xmlns="http://www.w3.org/2000/svg">
<path d="M22.1339 34.3571H24.1161C24.3789 34.3571 24.631 34.2527 24.8169 34.0669C25.0027 33.881 25.1071 33.6289 25.1071 33.3661V15.5268C25.1071 15.2639 25.0027 15.0119 24.8169 14.826C24.631 14.6401 24.3789 14.5357 24.1161 14.5357H22.1339C21.8711 14.5357 21.619 14.6401 21.4331 14.826C21.2473 15.0119 21.1429 15.2639 21.1429 15.5268V33.3661C21.1429 33.6289 21.2473 33.881 21.4331 34.0669C21.619 34.2527 21.8711 34.3571 22.1339 34.3571ZM35.6786 6.60714H28.8724L26.0644 1.92433C25.712 1.33713 25.2134 0.851241 24.6174 0.514C24.0214 0.17676 23.3482 -0.000325682 22.6633 4.49654e-07H14.3367C13.6521 -4.03671e-05 12.9792 0.17718 12.3835 0.514407C11.7878 0.851634 11.2896 1.33737 10.9373 1.92433L8.12761 6.60714H1.32143C0.970964 6.60714 0.634853 6.74637 0.387037 6.99418C0.139222 7.242 0 7.57811 0 7.92857L0 9.25C0 9.60046 0.139222 9.93657 0.387037 10.1844C0.634853 10.4322 0.970964 10.5714 1.32143 10.5714H2.64286V38.3214C2.64286 39.3728 3.06052 40.3812 3.80397 41.1246C4.54742 41.868 5.55575 42.2857 6.60714 42.2857H30.3929C31.4443 42.2857 32.4526 41.868 33.196 41.1246C33.9395 40.3812 34.3571 39.3728 34.3571 38.3214V10.5714H35.6786C36.029 10.5714 36.3651 10.4322 36.613 10.1844C36.8608 9.93657 37 9.60046 37 9.25V7.92857C37 7.57811 36.8608 7.242 36.613 6.99418C36.3651 6.74637 36.029 6.60714 35.6786 6.60714ZM14.1921 4.20462C14.2363 4.13111 14.2988 4.07032 14.3735 4.02819C14.4482 3.98606 14.5325 3.96405 14.6183 3.96429H22.3817C22.4673 3.96419 22.5515 3.98628 22.626 4.0284C22.7006 4.07051 22.7629 4.13123 22.807 4.20462L24.249 6.60714H12.751L14.1921 4.20462ZM30.3929 38.3214H6.60714V10.5714H30.3929V38.3214ZM12.8839 34.3571H14.8661C15.1289 34.3571 15.381 34.2527 15.5669 34.0669C15.7527 33.881 15.8571 33.6289 15.8571 33.3661V15.5268C15.8571 15.2639 15.7527 15.0119 15.5669 14.826C15.381 14.6401 15.1289 14.5357 14.8661 14.5357H12.8839C12.6211 14.5357 12.369 14.6401 12.1831 14.826C11.9973 15.0119 11.8929 15.2639 11.8929 15.5268V33.3661C11.8929 33.6289 11.9973 33.881 12.1831 34.0669C12.369 34.2527 12.6211 34.3571 12.8839 34.3571Z" fill="#314069"/>
</svg>
