<svg width="34" height="30" viewBox="0 0 34 30" fill="none" xmlns="http://www.w3.org/2000/svg">
<path d="M19.6562 0H32.4062C33.2865 0 34 0.713535 34 1.59375V12.2188C34 13.099 33.2865 13.8125 32.4062 13.8125H19.6562C18.776 13.8125 18.0625 13.099 18.0625 12.2188V1.59375C18.0625 0.713535 18.776 0 19.6562 0ZM14.3438 0H1.59375C0.713535 0 0 0.713535 0 1.59375V12.2188C0 13.099 0.713535 13.8125 1.59375 13.8125H14.3438C15.224 13.8125 15.9375 13.099 15.9375 12.2188V1.59375C15.9375 0.713535 15.224 0 14.3438 0ZM0 17.5312V28.1562C0 29.0365 0.713535 29.75 1.59375 29.75H14.3438C15.224 29.75 15.9375 29.0365 15.9375 28.1562V17.5312C15.9375 16.651 15.224 15.9375 14.3438 15.9375H1.59375C0.713535 15.9375 0 16.651 0 17.5312ZM19.6562 29.75H32.4062C33.2865 29.75 34 29.0365 34 28.1562V17.5312C34 16.651 33.2865 15.9375 32.4062 15.9375H19.6562C18.776 15.9375 18.0625 16.651 18.0625 17.5312V28.1562C18.0625 29.0365 18.776 29.75 19.6562 29.75Z" fill="#314069"/>
</svg>
