<svg width="37" height="37" viewBox="0 0 37 37" fill="none" xmlns="http://www.w3.org/2000/svg">
<path d="M14.7632 0.363867C7.5799 1.76584 1.79133 7.53996 0.374905 14.7016C-2.29897 28.2155 9.89244 38.2895 19.0775 36.8658C22.0549 36.4033 23.5147 32.92 22.1489 30.2389C20.4795 26.958 22.8643 23.1279 26.5499 23.1279H32.3096C34.8967 23.1279 36.9925 20.9888 36.9997 18.4089C36.9636 7.01964 26.6005 -1.94144 14.7632 0.363867ZM6.93673 23.1279C5.65761 23.1279 4.62419 22.0945 4.62419 20.8154C4.62419 19.5362 5.65761 18.5028 6.93673 18.5028C8.21585 18.5028 9.24926 19.5362 9.24926 20.8154C9.24926 22.0945 8.21585 23.1279 6.93673 23.1279ZM9.24926 13.8778C7.97014 13.8778 6.93673 12.8443 6.93673 11.5652C6.93673 10.2861 7.97014 9.25268 9.24926 9.25268C10.5284 9.25268 11.5618 10.2861 11.5618 11.5652C11.5618 12.8443 10.5284 13.8778 9.24926 13.8778ZM18.4994 9.25268C17.2203 9.25268 16.1869 8.21926 16.1869 6.94014C16.1869 5.66102 17.2203 4.62761 18.4994 4.62761C19.7785 4.62761 20.8119 5.66102 20.8119 6.94014C20.8119 8.21926 19.7785 9.25268 18.4994 9.25268ZM27.7496 13.8778C26.4704 13.8778 25.437 12.8443 25.437 11.5652C25.437 10.2861 26.4704 9.25268 27.7496 9.25268C29.0287 9.25268 30.0621 10.2861 30.0621 11.5652C30.0621 12.8443 29.0287 13.8778 27.7496 13.8778Z" fill="#314069"/>
</svg>
