<svg width="37" height="37" viewBox="0 0 37 37" fill="none" xmlns="http://www.w3.org/2000/svg">
<path d="M11.5625 20.8125H7.51562C7.19621 20.8125 6.9375 20.5538 6.9375 20.2344V19.0781C6.9375 18.7587 7.19621 18.5 7.51562 18.5H11.5625V13.875H7.51562C7.19621 13.875 6.9375 13.6163 6.9375 13.2969V12.1406C6.9375 11.8212 7.19621 11.5625 7.51562 11.5625H11.5625V6.9375H7.51562C7.19621 6.9375 6.9375 6.67879 6.9375 6.35938V5.20312C6.9375 4.88371 7.19621 4.625 7.51562 4.625H11.5625V2.3125C11.5625 1.03557 10.5269 0 9.25 0H2.3125C1.03557 0 0 1.03557 0 2.3125V34.6875C0 34.8877 0.0657617 35.0662 0.113457 35.2512L11.5625 23.8029V20.8125ZM34.6875 25.4375H32.375V29.4844C32.375 29.8038 32.1163 30.0625 31.7969 30.0625H30.6406C30.3212 30.0625 30.0625 29.8038 30.0625 29.4844V25.4375H25.4375V29.4844C25.4375 29.8038 25.1788 30.0625 24.8594 30.0625H23.7031C23.3837 30.0625 23.125 29.8038 23.125 29.4844V25.4375H18.5V29.4844C18.5 29.8038 18.2413 30.0625 17.9219 30.0625H16.7656C16.4462 30.0625 16.1875 29.8038 16.1875 29.4844V25.4375H13.1979L1.74883 36.8865C1.93383 36.9342 2.11305 37 2.3125 37H34.6875C35.9644 37 37 35.9644 37 34.6875V27.75C37 26.4731 35.9644 25.4375 34.6875 25.4375Z" fill="#314069"/>
</svg>
