<svg id="_6" data-name="6" xmlns="http://www.w3.org/2000/svg" width="24.6" height="16.678" viewBox="0 0 24.6 16.678">
  <path id="Path_131" data-name="Path 131" d="M1340.957,1471.153a.9.9,0,0,1-.915,0l-11.458-6.766a.255.255,0,0,0-.385.22v10.276a1.934,1.934,0,0,0,1.934,1.934h20.732a1.934,1.934,0,0,0,1.934-1.934v-10.276a.255.255,0,0,0-.385-.22Z" transform="translate(-1328.199 -1460.139)" fill="#fff"/>
  <path id="Path_132" data-name="Path 132" d="M1341.1,1403.056l11.66-6.885a.253.253,0,0,0,.125-.237,1.937,1.937,0,0,0-1.927-1.771h-20.732a1.937,1.937,0,0,0-1.927,1.771.253.253,0,0,0,.125.237l11.66,6.885A1,1,0,0,0,1341.1,1403.056Z" transform="translate(-1328.294 -1394.163)" fill="#fff"/>
</svg>
