<svg xmlns="http://www.w3.org/2000/svg" width="15.082" height="24" viewBox="0 0 15.082 24">
  <path id="_8" data-name="8" d="M3275.374,1331.446l-1.659-3.552a1.516,1.516,0,0,0-1.805-.813l-1.972.519c-.284-.244-1.191-1.221-2.81-4.687-1.628-3.486-1.788-4.8-1.792-5.162l1.666-1.18a1.526,1.526,0,0,0,.536-1.906l-1.658-3.552a1.575,1.575,0,0,0-2.284-.656l-.992.642a4.306,4.306,0,0,0-1.845,2.456,8.766,8.766,0,0,0-.262,3.453,25.407,25.407,0,0,0,2.389,7.887,27.628,27.628,0,0,0,3.916,6.266c1.758,2.02,3.488,3.044,5.143,3.044a3.934,3.934,0,0,0,1.342-.237l1.124-.347a1.577,1.577,0,0,0,.963-2.173Z" transform="translate(-3260.44 -1310.203)" fill="#fff"/>
</svg>
