<svg xmlns="http://www.w3.org/2000/svg" width="44.17322855931718" height="51.685039665718364" style=""><rect id="backgroundrect" width="100%" height="100%" x="0" y="0" fill="none" stroke="none" class="" style=""/>
  
<g class="currentLayer" style=""><title>Layer 1</title>
    
    
    
    
    
    
    
  <g class="" id="svg_13" fill="#ffffff" fill-opacity="1" stroke="#ffffff" stroke-opacity="1"><g data-name="Group 5" fill="#ffffff" fill-opacity="1" opacity="1" stroke="#ffffff" stroke-opacity="1" class="" id="svg_14">
      <circle id="svg_3" data-name="Ellipse 1" cx="-30.087261891735338" cy="25.808438153617665" r="2.434999942779541" transform="matrix(0.385,-0.923,0.923,0.385,0,4.496) " fill="#ffffff" stroke="#ffffff" stroke-miterlimit="10" stroke-width="2" fill-opacity="1" opacity="1" stroke-opacity="1"/>
      <circle id="svg_5" data-name="Ellipse 2" cx="-30.087261891735338" cy="25.8084381536176" r="2.434999942779541" transform="matrix(0.385,-0.923,0.923,0.385,16.699,4.496) " fill="#ffffff" stroke="#ffffff" stroke-miterlimit="10" stroke-width="2" fill-opacity="1" opacity="1" stroke-opacity="1"/>
    </g><path data-name="Path 18" d="M34.913621939659095,37.04182724380496 H12.046621939659133 a3.479,3.479 0 0 1 -3.407,-4.18 l3.579,-17.386 a1.739,1.739 0 0 0 -1.7000000000000002,-2.09 h-3.432 " fill="#ffffff" stroke="#ffffff" stroke-miterlimit="10" stroke-width="2" fill-opacity="1" opacity="1" stroke-opacity="1" class="" id="svg_15"/><path data-name="Path 19" d="M14.388621787071202,16.86482733535763 h21.437 a1.739,1.739 0 0 1 1.693,2.14 l-2.339,9.876 a1.739,1.739 0 0 1 -1.5150000000000001,1.3290000000000002 l-22.242,2.279 " fill="#ffffff" stroke="#ffffff" stroke-miterlimit="10" stroke-width="2" fill-opacity="1" opacity="1" stroke-opacity="1" class="" id="svg_16"/><line data-name="Line 1" x1="32.446635603904724" y2="30.402843952178955" fill="none" stroke="#ffffff" stroke-miterlimit="10" stroke-width="2" x2="29.16363561153412" y1="16.86484384536743" opacity="1" class="" id="svg_17"/><line data-name="Line 2" x1="26.031625866889954" y2="31.098844051361084" fill="none" stroke="#ffffff" stroke-miterlimit="10" stroke-width="2" x2="22.77862584590912" y1="16.86484384536743" opacity="1" class="" id="svg_18"/><line data-name="Line 3" x1="19.66163408756256" y2="31.794844150543213" fill="none" stroke="#ffffff" stroke-miterlimit="10" stroke-width="2" x2="16.24963414669037" y1="16.86484384536743" opacity="1" class="" id="svg_19"/><line data-name="Line 4" x1="36.46861493587494" y2="24.14079988002777" fill="none" stroke="#ffffff" stroke-miterlimit="10" stroke-width="2" x2="13.160614371299744" y1="23.44479990005493" opacity="1" class="" id="svg_20"/></g></g></svg>