<svg xmlns="http://www.w3.org/2000/svg" width="38" height="36.333" viewBox="0 0 38 36.333">
  <g id="Group_293" data-name="Group 293" transform="translate(-1663.875 -718.879)">
    <g id="Group_292" data-name="Group 292" transform="translate(1665 720)">
      <path id="Path_190" data-name="Path 190" d="M1666.986,720s.718,5.517.718,8.055-2.7,10.041-2.7,13.13a4.98,4.98,0,0,0,5.3,5.3c4.028,0,7.007-1.324,9.268-1.324,3.807,0,6.179,1.324,9.931,1.324a22.723,22.723,0,0,0,4.634-.662c.662,0,1.765.662,3.31.662,1.386,0,3.31-.634,3.31-2.989a1.119,1.119,0,0,0-.25-.687.835.835,0,0,0-.627-.342c-5.081,0-9.3-4.174-11.7-5.25-3.942-1.765-8.606-3.944-8.606-6.62V720" transform="translate(-1665 -720)" fill="none" stroke="#fff" stroke-linecap="round" stroke-linejoin="round" stroke-width="2"/>
      <path id="Path_191" data-name="Path 191" d="M1708.3,815a3.187,3.187,0,0,0,1.324,3.972" transform="translate(-1702.338 -802.421)" fill="none" stroke="#fff" stroke-linecap="round" stroke-linejoin="round" stroke-width="2"/>
    </g>
    <line id="Line_14" data-name="Line 14" y2="6" transform="translate(1700.875 748.213)" fill="none" stroke="#fff" stroke-linecap="round" stroke-linejoin="round" stroke-width="2"/>
    <line id="Line_15" data-name="Line 15" y2="6" transform="translate(1664.875 748.213)" fill="none" stroke="#fff" stroke-linecap="round" stroke-linejoin="round" stroke-width="2"/>
    <path id="Path_192" data-name="Path 192" d="M1900,940l1.986,1.986L1900,943.972" transform="translate(-203.884 -190.87)" fill="none" stroke="#fff" stroke-linecap="round" stroke-linejoin="round" stroke-width="2"/>
    <path id="Path_193" data-name="Path 193" d="M1686.986,940,1685,941.986l1.986,1.986" transform="translate(-17.352 -190.87)" fill="none" stroke="#fff" stroke-linecap="round" stroke-linejoin="round" stroke-width="2"/>
    <line id="Line_16" data-name="Line 16" x1="30" transform="translate(1667.875 751.213)" fill="none" stroke="#fff" stroke-linecap="round" stroke-linejoin="round" stroke-width="2"/>
  </g>
</svg>
