<svg xmlns="http://www.w3.org/2000/svg" width="17.591" height="22.903" viewBox="0 0 17.591 22.903">
  <g id="Group_169" data-name="Group 169" transform="translate(-306.855 -695.049)">
    <circle id="Ellipse_37" data-name="Ellipse 37" cx="3.564" cy="3.564" r="3.564" transform="translate(312.088 695.049)" fill="#87c3ff"/>
    <path id="Path_181" data-name="Path 181" d="M323.994,747.7h0a1.544,1.544,0,0,0-2.184,0l-3.64,3.64a3.562,3.562,0,0,1-5.037,0l-3.617-3.617a1.565,1.565,0,0,0-2.176-.053,1.544,1.544,0,0,0-.034,2.214l4.775,4.779v10.783a1.581,1.581,0,0,0,1.589,1.575,1.557,1.557,0,0,0,1.529-1.544v-4.728a.45.45,0,1,1,.9,0v4.7a1.581,1.581,0,0,0,1.589,1.575,1.557,1.557,0,0,0,1.529-1.544V754.662L324,749.883A1.544,1.544,0,0,0,323.994,747.7Z" transform="translate(0 -49.068)" fill="#87c3ff"/>
  </g>
</svg>
