<svg xmlns="http://www.w3.org/2000/svg" width="17.285" height="22.903" viewBox="0 0 17.285 22.903">
  <g id="Group_171" data-name="Group 171" transform="translate(-606.678 -402.323)">
    <g id="Group_170" data-name="Group 170" transform="translate(606.678 402.323)">
      <circle id="Ellipse_38" data-name="Ellipse 38" cx="3.502" cy="3.502" r="3.502" transform="translate(4.744 6.953) rotate(-83.082)" fill="#f1c9cc"/>
      <path id="Path_182" data-name="Path 182" d="M623.518,461.691h0a1.518,1.518,0,0,0-2.146,0l-3.577,3.577a3.5,3.5,0,0,1-4.95,0l-3.555-3.555a1.538,1.538,0,0,0-2.138-.052,1.518,1.518,0,0,0-.031,2.176l4.7,4.665-1.868,7.817h1.874v2.811a1.554,1.554,0,0,0,1.562,1.547,1.53,1.53,0,0,0,1.5-1.517v-2.841h.884v2.811a1.554,1.554,0,0,0,1.562,1.547,1.53,1.53,0,0,0,1.5-1.517v-2.841h1.853l-1.868-7.817,4.7-4.676A1.5,1.5,0,0,0,623.518,461.691Z" transform="translate(-606.678 -457.774)" fill="#f1c9cc"/>
    </g>
  </g>
</svg>
