<svg xmlns="http://www.w3.org/2000/svg" width="25.034" height="25.034" viewBox="0 0 25.034 25.034">
  <g id="Group_153" data-name="Group 153" transform="translate(-1091 -390)">
    <path id="Path_177" data-name="Path 177" d="M17.576,0H7.458A7.466,7.466,0,0,0,0,7.458V17.576a7.466,7.466,0,0,0,7.458,7.458H17.576a7.466,7.466,0,0,0,7.458-7.458V7.458A7.466,7.466,0,0,0,17.576,0Zm4.939,17.576a4.939,4.939,0,0,1-4.939,4.939H7.458a4.939,4.939,0,0,1-4.939-4.939V7.458A4.939,4.939,0,0,1,7.458,2.518H17.576a4.939,4.939,0,0,1,4.939,4.939V17.576Z" transform="translate(1091 390)" fill="#fff"/>
    <path id="Path_178" data-name="Path 178" d="M139.475,133a6.475,6.475,0,1,0,6.475,6.475A6.482,6.482,0,0,0,139.475,133Zm0,10.431a3.956,3.956,0,1,1,3.956-3.956A3.956,3.956,0,0,1,139.475,143.431Z" transform="translate(964.043 263.042)" fill="#fff"/>
    <circle id="Ellipse_26" data-name="Ellipse 26" cx="1.551" cy="1.551" r="1.551" transform="translate(1108.453 394.539)" fill="#fff"/>
  </g>
</svg>
