<svg xmlns="http://www.w3.org/2000/svg" width="30.25" height="33.482" viewBox="0 0 30.25 33.482">
  <g id="Group_295" data-name="Group 295" transform="translate(-935.525 -2512.468)">
    <g id="Group_194" data-name="Group 194" transform="matrix(-0.259, -0.966, 0.966, -0.259, 943.125, 2548.536)">
      <g id="Group_166" data-name="Group 166" transform="translate(0 0)">
        <path id="Path_180" data-name="Path 180" d="M3.521.54A5.971,5.971,0,0,0,.161,4.566,5.764,5.764,0,0,0,0,5.637,7,7,0,0,0,.019,6.4a15.029,15.029,0,0,0,2.466,6.623,14.318,14.318,0,0,0,5.5,5.325c.075.036.152.069.229.1l.076.031a4.163,4.163,0,0,0,2.262.2,4.25,4.25,0,0,0,.953-.3,4.092,4.092,0,0,0,2.111-5.387A3.94,3.94,0,0,0,12.571,11.6h0a3.675,3.675,0,0,1-.987-1.314,3.8,3.8,0,0,1-.2-2.435,6.924,6.924,0,0,0-.081-4.49A5.856,5.856,0,0,0,3.521.54Z" transform="translate(3.618 5.665)" fill="#304068"/>
        <ellipse id="Ellipse_32" data-name="Ellipse 32" cx="2.496" cy="2.051" rx="2.496" ry="2.051" transform="translate(10.393 4.99) rotate(-88.931)" fill="#304068"/>
        <ellipse id="Ellipse_33" data-name="Ellipse 33" cx="1.448" cy="1.761" rx="1.448" ry="1.761" transform="matrix(0.976, -0.217, 0.217, 0.976, 6.361, 1.486)" fill="#304068"/>
        <ellipse id="Ellipse_34" data-name="Ellipse 34" cx="1.279" cy="1.556" rx="1.279" ry="1.556" transform="matrix(0.848, -0.53, 0.53, 0.848, 3.072, 3.885)" fill="#304068"/>
        <ellipse id="Ellipse_35" data-name="Ellipse 35" cx="1.101" cy="1.339" rx="1.101" ry="1.339" transform="matrix(0.628, -0.779, 0.779, 0.628, 1.022, 6.845)" fill="#304068"/>
        <ellipse id="Ellipse_36" data-name="Ellipse 36" cx="1.043" cy="1.269" rx="1.043" ry="1.269" transform="translate(0 9.989) rotate(-66.681)" fill="#304068"/>
      </g>
    </g>
    <g id="Group_290" data-name="Group 290" transform="translate(958.504 2510.221) rotate(77)">
      <g id="Group_166-2" data-name="Group 166" transform="translate(0 0)">
        <path id="Path_180-2" data-name="Path 180" d="M3.521.54A5.971,5.971,0,0,0,.161,4.566,5.763,5.763,0,0,0,0,5.637,7,7,0,0,0,.019,6.4a15.028,15.028,0,0,0,2.466,6.623,14.318,14.318,0,0,0,5.5,5.325c.075.036.152.069.229.1l.076.031a4.163,4.163,0,0,0,2.262.2,4.252,4.252,0,0,0,.953-.3,4.092,4.092,0,0,0,2.111-5.387A3.94,3.94,0,0,0,12.571,11.6h0a3.675,3.675,0,0,1-.987-1.314,3.8,3.8,0,0,1-.2-2.435,6.924,6.924,0,0,0-.081-4.49A5.856,5.856,0,0,0,3.521.54Z" transform="translate(3.618 5.665)" fill="#304068"/>
        <ellipse id="Ellipse_32-2" data-name="Ellipse 32" cx="2.496" cy="2.051" rx="2.496" ry="2.051" transform="translate(10.393 4.99) rotate(-88.931)" fill="#304068"/>
        <ellipse id="Ellipse_33-2" data-name="Ellipse 33" cx="1.448" cy="1.761" rx="1.448" ry="1.761" transform="matrix(0.976, -0.217, 0.217, 0.976, 6.361, 1.486)" fill="#304068"/>
        <ellipse id="Ellipse_34-2" data-name="Ellipse 34" cx="1.279" cy="1.556" rx="1.279" ry="1.556" transform="matrix(0.848, -0.53, 0.53, 0.848, 3.072, 3.885)" fill="#304068"/>
        <ellipse id="Ellipse_35-2" data-name="Ellipse 35" cx="1.101" cy="1.339" rx="1.101" ry="1.339" transform="matrix(0.628, -0.779, 0.779, 0.628, 1.022, 6.845)" fill="#304068"/>
        <ellipse id="Ellipse_36-2" data-name="Ellipse 36" cx="1.043" cy="1.269" rx="1.043" ry="1.269" transform="translate(0 9.989) rotate(-66.681)" fill="#304068"/>
      </g>
    </g>
  </g>
</svg>
