<svg xmlns="http://www.w3.org/2000/svg" width="42.414" height="36.741" viewBox="0 0 42.414 36.741">
  <g id="Group_196" data-name="Group 196" transform="translate(-367.586 -132.586)">
    <path id="Path_185" data-name="Path 185" d="M382.562,151.454l2.477,2.214s1.283.867,2.01.67a6.1,6.1,0,0,1,3.79-.072c2.271.795,5.213,2.26,5.658,2.374.757.195,1.613,1.108,1.137,1.742a4.1,4.1,0,0,1-2.642,1.315c-.869.077-2.712-1.536-4.26-1.187-.585.132-.42,1.612.083,2.115s6.737,7.277,6.737,7.277a1.34,1.34,0,0,1-.948,2.288H384.816a1.34,1.34,0,0,1-.948-.392l-3.505-3.988c-1.131-1.13-2.627-2.748-2.627-4.348v-1.739l-1.757-1.7" transform="translate(-0.91 -2.277)" fill="none" stroke="#fff" stroke-linecap="round" stroke-linejoin="round" stroke-width="2"/>
    <path id="Path_186" data-name="Path 186" d="M370,160v9.565h11.3" transform="translate(-0.13 -3.391)" fill="none" stroke="#fff" stroke-linecap="round" stroke-linejoin="round" stroke-width="2"/>
    <path id="Path_187" data-name="Path 187" d="M398.609,166.435h11.3V136H376" transform="translate(-0.913 -0.261)" fill="none" stroke="#fff" stroke-linecap="round" stroke-linejoin="round" stroke-width="2"/>
    <path id="Path_188" data-name="Path 188" d="M369,151.391s5.217,5.145,5.217,5.217l8.7-8.7L369,134" fill="none" stroke="#fff" stroke-linecap="round" stroke-linejoin="round" stroke-width="2"/>
    <path id="Path_189" data-name="Path 189" d="M388,136v4.348h8.7V136" transform="translate(-2.478 -0.261)" fill="none" stroke="#fff" stroke-linecap="round" stroke-linejoin="round" stroke-width="2"/>
    <line id="Line_9" data-name="Line 9" x1="1.739" y1="1.739" transform="translate(385.522 166.174)" fill="none" stroke="#fff" stroke-linecap="round" stroke-linejoin="round" stroke-width="2"/>
    <line id="Line_10" data-name="Line 10" x1="1.739" y1="1.739" transform="translate(389 166.174)" fill="none" stroke="#fff" stroke-linecap="round" stroke-linejoin="round" stroke-width="2"/>
    <line id="Line_11" data-name="Line 11" x1="1.739" y1="1.739" transform="translate(392.478 166.174)" fill="none" stroke="#fff" stroke-linecap="round" stroke-linejoin="round" stroke-width="2"/>
  </g>
</svg>
