<svg xmlns="http://www.w3.org/2000/svg" width="32" height="28.47" viewBox="0 0 32 28.47">
  <path id="heart" d="M16,28.47A1.876,1.876,0,0,1,14.763,28c-1.293-1.13-2.539-2.193-3.639-3.13l-.006,0a67.671,67.671,0,0,1-7.945-7.457A11.911,11.911,0,0,1,0,9.617,10,10,0,0,1,2.539,2.786,8.6,8.6,0,0,1,8.94,0a8.049,8.049,0,0,1,5.028,1.736A10.287,10.287,0,0,1,16,3.858a10.288,10.288,0,0,1,2.033-2.123A8.049,8.049,0,0,1,23.061,0a8.605,8.605,0,0,1,6.4,2.786A10,10,0,0,1,32,9.617a11.909,11.909,0,0,1-3.174,7.8,67.664,67.664,0,0,1-7.944,7.457c-1.1.938-2.35,2-3.646,3.135A1.878,1.878,0,0,1,16,28.47ZM8.94,1.875A6.751,6.751,0,0,0,3.917,4.057a8.136,8.136,0,0,0-2.042,5.56,10.021,10.021,0,0,0,2.743,6.6,66.593,66.593,0,0,0,7.717,7.227l.006,0c1.1.941,2.355,2.007,3.657,3.146,1.31-1.141,2.563-2.209,3.669-3.151a66.61,66.61,0,0,0,7.717-7.226,10.022,10.022,0,0,0,2.742-6.6,8.136,8.136,0,0,0-2.042-5.56,6.751,6.751,0,0,0-5.023-2.182A6.217,6.217,0,0,0,19.18,3.218a9.1,9.1,0,0,0-2.163,2.5,1.183,1.183,0,0,1-2.033,0,9.088,9.088,0,0,0-2.163-2.5A6.217,6.217,0,0,0,8.94,1.875Zm0,0" transform="translate(0 0)" fill="#b4bed5"/>
</svg>
