<svg xmlns="http://www.w3.org/2000/svg" xmlns:xlink="http://www.w3.org/1999/xlink" version="1.1" width="1000" height="1000" viewBox="0 0 1000 1000" xml:space="preserve">
<desc>Created with Fabric.js 3.5.0</desc>
<defs>
</defs>
<rect x="0" y="0" width="100%" height="100%" fill="#ffffff"/>
<g transform="matrix(36.9549 0 0 36.9549 499.9998 499.9999)" id="364208">
<g style="" vector-effect="non-scaling-stroke">
		<g transform="matrix(1 0 0 1 0 2.1062)" id="Path_131">
<path style="stroke: none; stroke-width: 1; stroke-dasharray: none; stroke-linecap: butt; stroke-dashoffset: 0; stroke-linejoin: miter; stroke-miterlimit: 4; is-custom-font: none; font-file-url: none; fill: rgb(180,180,180); fill-rule: nonzero; opacity: 1;" transform=" translate(-1340.499, -1470.5842)" d="M 1340.957 1471.153 a 0.9 0.9 0 0 1 -0.915 0 l -11.458 -6.766 a 0.255 0.255 0 0 0 -0.385 0.22 v 10.276 a 1.934 1.934 0 0 0 1.934 1.934 h 20.732 a 1.934 1.934 0 0 0 1.934 -1.934 v -10.276 a 0.255 0.255 0 0 0 -0.385 -0.22 Z" stroke-linecap="round"/>
</g>
		<g transform="matrix(1 0 0 1 -0.002 -3.8232)" id="Path_132">
<path style="stroke: none; stroke-width: 1; stroke-dasharray: none; stroke-linecap: butt; stroke-dashoffset: 0; stroke-linejoin: miter; stroke-miterlimit: 4; is-custom-font: none; font-file-url: none; fill: rgb(180,180,180); fill-rule: nonzero; opacity: 1;" transform=" translate(-1340.592, -1398.6788)" d="M 1341.1 1403.056 l 11.66 -6.885 a 0.253 0.253 0 0 0 0.125 -0.237 a 1.937 1.937 0 0 0 -1.927 -1.771 h -20.732 a 1.937 1.937 0 0 0 -1.927 1.771 a 0.253 0.253 0 0 0 0.125 0.237 l 11.66 6.885 A 1 1 0 0 0 1341.1 1403.056 Z" stroke-linecap="round"/>
</g>
</g>
</g>
</svg>