<svg xmlns="http://www.w3.org/2000/svg" width="24" height="19.433" viewBox="0 0 24 19.433">
  <path id="twitter" d="M23.9,2.283a11,11,0,0,1-2.818.777A4.776,4.776,0,0,0,23.22.34a10.113,10.113,0,0,1-3.109,1.215,4.915,4.915,0,0,0-8.5,3.352,4.141,4.141,0,0,0,.146,1.117A13.983,13.983,0,0,1,1.6.923,5.016,5.016,0,0,0,.969,3.352,4.909,4.909,0,0,0,3.155,7.433,4.968,4.968,0,0,1,.92,6.8V6.85a4.9,4.9,0,0,0,3.935,4.81,5.321,5.321,0,0,1-1.312.194,5.381,5.381,0,0,1-.923-.1,4.92,4.92,0,0,0,4.567,3.4,9.915,9.915,0,0,1-6.121,2.089A9.361,9.361,0,0,1-.1,17.2a13.724,13.724,0,0,0,7.579,2.235A13.9,13.9,0,0,0,21.471,5.441V4.81A10.041,10.041,0,0,0,23.9,2.283Z" transform="translate(0.1)" fill="#fff"/>
</svg>
