<svg width="682" height="59" viewBox="0 0 682 59" fill="none" xmlns="http://www.w3.org/2000/svg">
<line x1="33" y1="28.5" x2="650" y2="28.5" stroke="#314069" stroke-width="3"/>
<ellipse cx="31.7202" cy="29.5" rx="31.7202" ry="29.5" fill="#75809D"/>
<ellipse cx="182.257" cy="29.5" rx="31.7202" ry="29.5" fill="#314069"/>
<ellipse cx="483.33" cy="29.5" rx="31.7202" ry="29.5" fill="#75809D"/>
<ellipse cx="649.72" cy="29.5" rx="31.7202" ry="29.5" fill="#75809D"/>
<ellipse cx="332.793" cy="29.5" rx="31.7202" ry="29.5" fill="#75809D"/>
<path d="M46.6414 22.0833C46.3472 21.6093 45.9259 21.2143 45.4187 20.9368C44.9115 20.6593 44.3355 20.5088 43.7471 20.5H21.9552L20.9677 16.9217C20.8679 16.5763 20.6454 16.2724 20.3362 16.0597C20.0271 15.8469 19.6496 15.7378 19.2652 15.75H15.8602C15.4087 15.75 14.9756 15.9168 14.6564 16.2138C14.3371 16.5107 14.1577 16.9134 14.1577 17.3333C14.1577 17.7533 14.3371 18.156 14.6564 18.4529C14.9756 18.7499 15.4087 18.9167 15.8602 18.9167H17.9713L22.6702 35.1617C22.77 35.5071 22.9926 35.8109 23.3017 36.0237C23.6108 36.2364 23.9883 36.3456 24.3727 36.3333H39.6952C40.0096 36.3325 40.3176 36.2506 40.585 36.0969C40.8525 35.9432 41.0689 35.7236 41.2104 35.4625L46.7946 25.0758C47.0366 24.604 47.1493 24.0838 47.1226 23.5617C47.0958 23.0395 46.9305 22.5316 46.6414 22.0833ZM38.6396 33.1667H25.6666L22.8915 23.6667H43.7471L38.6396 33.1667Z" fill="white"/>
<path d="M23.5213 44.25C24.9317 44.25 26.075 43.1866 26.075 41.875C26.075 40.5633 24.9317 39.5 23.5213 39.5C22.1109 39.5 20.9675 40.5633 20.9675 41.875C20.9675 43.1866 22.1109 44.25 23.5213 44.25Z" fill="white"/>
<path d="M40.5464 44.25C41.9568 44.25 43.1002 43.1866 43.1002 41.875C43.1002 40.5633 41.9568 39.5 40.5464 39.5C39.136 39.5 37.9927 40.5633 37.9927 41.875C37.9927 43.1866 39.136 44.25 40.5464 44.25Z" fill="white"/>
<path d="M200.214 28.765L192.382 22.9067V18.9167C192.424 18.117 192.123 17.3346 191.545 16.741C190.968 16.1473 190.16 15.791 189.301 15.75H169.892C169.039 15.799 168.24 16.1589 167.67 16.7516C167.099 17.3443 166.803 18.1222 166.845 18.9167V34.75C166.829 35.3787 167.015 35.9976 167.379 36.5278C167.743 37.0579 168.268 37.4753 168.888 37.7267C168.574 38.44 168.452 39.2136 168.532 39.9807C168.611 40.7478 168.891 41.4853 169.345 42.1297C169.8 42.774 170.416 43.3058 171.141 43.6792C171.866 44.0526 172.678 44.2563 173.506 44.2728C174.335 44.2893 175.155 44.1181 175.896 43.774C176.638 43.4298 177.278 42.9231 177.762 42.2974C178.246 41.6718 178.559 40.946 178.674 40.1828C178.789 39.4196 178.702 38.6419 178.422 37.9167H189.25C188.97 38.6341 188.88 39.4038 188.987 40.1604C189.095 40.9171 189.397 41.6385 189.868 42.2635C190.339 42.8885 190.965 43.3988 191.693 43.751C192.421 44.1033 193.23 44.2872 194.051 44.2872C194.871 44.2872 195.68 44.1033 196.408 43.751C197.136 43.3988 197.762 42.8885 198.233 42.2635C198.704 41.6385 199.006 40.9171 199.114 40.1604C199.222 39.4038 199.132 38.6341 198.852 37.9167H199.192C199.644 37.9167 200.077 37.7499 200.396 37.4529C200.715 37.156 200.895 36.7533 200.895 36.3333V30C200.889 29.7596 200.825 29.5234 200.707 29.3094C200.589 29.0954 200.421 28.9092 200.214 28.765ZM197.49 30.76V34.75H192.382V26.96L197.49 30.76ZM175.357 39.5C175.357 39.8132 175.257 40.1193 175.07 40.3797C174.883 40.64 174.617 40.843 174.306 40.9628C173.995 41.0826 173.653 41.114 173.323 41.0529C172.992 40.9918 172.689 40.841 172.451 40.6196C172.213 40.3982 172.051 40.116 171.985 39.8089C171.919 39.5018 171.953 39.1834 172.082 38.8941C172.211 38.6048 172.429 38.3575 172.709 38.1835C172.989 38.0095 173.318 37.9167 173.655 37.9167C174.106 37.9167 174.539 38.0835 174.859 38.3804C175.178 38.6773 175.357 39.0801 175.357 39.5ZM183.87 34.75H170.25V18.9167H188.977V34.75H183.87ZM195.787 39.5C195.787 39.8132 195.687 40.1193 195.5 40.3797C195.313 40.64 195.047 40.843 194.736 40.9628C194.425 41.0826 194.083 41.114 193.753 41.0529C193.422 40.9918 193.119 40.841 192.881 40.6196C192.643 40.3982 192.481 40.116 192.415 39.8089C192.349 39.5018 192.383 39.1834 192.512 38.8941C192.641 38.6048 192.859 38.3575 193.139 38.1835C193.419 38.0095 193.748 37.9167 194.085 37.9167C194.536 37.9167 194.969 38.0835 195.289 38.3804C195.608 38.6773 195.787 39.0801 195.787 39.5Z" fill="white"/>
<path d="M344.173 18.9167H320.338C318.984 18.9167 317.685 19.4171 316.727 20.3079C315.769 21.1987 315.231 22.4069 315.231 23.6667V36.3333C315.231 37.5931 315.769 38.8013 316.727 39.6921C317.685 40.5829 318.984 41.0833 320.338 41.0833H344.173C345.528 41.0833 346.827 40.5829 347.785 39.6921C348.743 38.8013 349.281 37.5931 349.281 36.3333V23.6667C349.281 22.4069 348.743 21.1987 347.785 20.3079C346.827 19.4171 345.528 18.9167 344.173 18.9167ZM318.636 23.6667C318.636 23.2467 318.815 22.844 319.135 22.5471C319.454 22.2501 319.887 22.0833 320.338 22.0833H344.173C344.625 22.0833 345.058 22.2501 345.377 22.5471C345.697 22.844 345.876 23.2467 345.876 23.6667V25.25H318.636V23.6667ZM345.876 36.3333C345.876 36.7532 345.697 37.156 345.377 37.4529C345.058 37.7498 344.625 37.9167 344.173 37.9167H320.338C319.887 37.9167 319.454 37.7498 319.135 37.4529C318.815 37.156 318.636 36.7532 318.636 36.3333V28.4167H345.876V36.3333Z" fill="white"/>
<path d="M323.744 34.75H330.554C331.005 34.75 331.438 34.5832 331.757 34.2863C332.077 33.9893 332.256 33.5866 332.256 33.1667C332.256 32.7468 332.077 32.344 331.757 32.0471C331.438 31.7502 331.005 31.5833 330.554 31.5833H323.744C323.292 31.5833 322.859 31.7502 322.54 32.0471C322.22 32.344 322.041 32.7468 322.041 33.1667C322.041 33.5866 322.22 33.9893 322.54 34.2863C322.859 34.5832 323.292 34.75 323.744 34.75Z" fill="white"/>
<path d="M337.363 34.75H340.768C341.22 34.75 341.653 34.5832 341.972 34.2863C342.292 33.9893 342.471 33.5866 342.471 33.1667C342.471 32.7468 342.292 32.344 341.972 32.0471C341.653 31.7502 341.22 31.5833 340.768 31.5833H337.363C336.912 31.5833 336.479 31.7502 336.16 32.0471C335.84 32.344 335.661 32.7468 335.661 33.1667C335.661 33.5866 335.84 33.9893 336.16 34.2863C336.479 34.5832 336.912 34.75 337.363 34.75Z" fill="white"/>
<path d="M650.258 15C641.35 15 634.129 21.7157 634.129 30C634.129 38.2843 641.35 45 650.258 45C659.166 45 666.387 38.2843 666.387 30C666.387 21.7157 659.166 15 650.258 15ZM650.258 17.9032C657.446 17.9032 663.265 23.3136 663.265 30C663.265 36.6854 657.447 42.0968 650.258 42.0968C643.069 42.0968 637.251 36.6864 637.251 30C637.251 23.3146 643.068 17.9032 650.258 17.9032ZM659.376 25.7823L657.91 24.4082C657.607 24.1236 657.113 24.1218 656.807 24.4041L647.614 32.8849L643.725 29.2391C643.422 28.9545 642.928 28.9527 642.622 29.2349L641.144 30.598C640.838 30.8803 640.836 31.3398 641.14 31.6245L647.044 37.1597C647.347 37.4443 647.841 37.4462 648.147 37.1638L659.372 26.8088C659.678 26.5264 659.68 26.0669 659.376 25.7823Z" fill="white"/>
<path d="M482.062 22.6574L471.5 31.3564V40.7452C471.5 40.9883 471.597 41.2215 471.769 41.3934C471.941 41.5653 472.174 41.6618 472.417 41.6618L478.837 41.6452C479.079 41.644 479.311 41.5469 479.482 41.3751C479.653 41.2034 479.749 40.9709 479.749 40.7286V35.2457C479.749 35.0026 479.845 34.7694 480.017 34.5975C480.189 34.4256 480.422 34.3291 480.665 34.3291H484.332C484.575 34.3291 484.808 34.4256 484.98 34.5975C485.152 34.7694 485.248 35.0026 485.248 35.2457V40.7246C485.248 40.8452 485.271 40.9647 485.317 41.0763C485.363 41.1878 485.431 41.2892 485.516 41.3746C485.601 41.46 485.702 41.5278 485.813 41.574C485.925 41.6203 486.044 41.6441 486.165 41.6441L492.582 41.6618C492.825 41.6618 493.058 41.5653 493.23 41.3934C493.402 41.2215 493.499 40.9883 493.499 40.7452V31.3501L482.939 22.6574C482.815 22.5573 482.66 22.5027 482.501 22.5027C482.341 22.5027 482.187 22.5573 482.062 22.6574ZM498.746 28.57L493.957 24.6223V16.6874C493.957 16.5051 493.885 16.3303 493.756 16.2013C493.627 16.0724 493.452 16 493.27 16H490.062C489.879 16 489.704 16.0724 489.575 16.2013C489.446 16.3303 489.374 16.5051 489.374 16.6874V20.8471L484.245 16.6273C483.753 16.2223 483.135 16.0008 482.498 16.0008C481.86 16.0008 481.243 16.2223 480.751 16.6273L466.249 28.57C466.18 28.6275 466.122 28.6982 466.08 28.778C466.038 28.8578 466.012 28.9451 466.003 29.0351C465.995 29.125 466.004 29.2157 466.03 29.302C466.057 29.3883 466.1 29.4685 466.158 29.5381L467.619 31.314C467.676 31.3838 467.747 31.4417 467.826 31.4841C467.906 31.5266 467.994 31.553 468.084 31.5616C468.174 31.5703 468.264 31.5612 468.351 31.5347C468.437 31.5082 468.518 31.465 468.587 31.4074L482.062 20.3086C482.187 20.2085 482.341 20.1539 482.501 20.1539C482.66 20.1539 482.815 20.2085 482.939 20.3086L496.415 31.4074C496.484 31.465 496.564 31.5083 496.651 31.5348C496.737 31.5614 496.828 31.5707 496.918 31.5622C497.008 31.5537 497.095 31.5275 497.175 31.4852C497.255 31.443 497.325 31.3854 497.383 31.3157L498.844 29.5398C498.901 29.4699 498.944 29.3892 498.971 29.3025C498.997 29.2158 499.006 29.1248 498.997 29.0347C498.988 28.9445 498.961 28.8571 498.918 28.7773C498.875 28.6976 498.817 28.6271 498.746 28.57Z" fill="white"/>
</svg>
